<svg width="264" height="268" viewBox="0 0 264 268" fill="none" xmlns="http://www.w3.org/2000/svg">
<path fill-rule="evenodd" clip-rule="evenodd" d="M79.971 0.260324C75.67 -0.791968 71.2358 1.42682 69.5893 5.45522L51.2989 50.2038L5.57311 68.1034C3.01227 69.1058 1.07405 71.2176 0.32935 73.8164C-0.415345 76.4154 0.118328 79.2055 1.77321 81.3647L28.7935 116.622L10.1156 189.737C9.05187 193.901 11.2586 198.201 15.3065 199.851L71.9332 222.941L99.9963 264.136C102.135 267.275 106.101 268.701 109.809 267.666L178.764 248.386C178.887 248.351 179.01 248.314 179.132 248.274L238.236 228.993C241.191 228.029 243.412 225.619 244.087 222.644L263.789 135.883C264.543 132.556 263.239 129.104 260.453 127.059L224.597 100.742V56.8785C224.597 53.5924 222.7 50.5881 219.695 49.1184L160.591 20.1977C160.013 19.9146 159.404 19.6943 158.777 19.5408L79.971 0.260324ZM214.397 114.946L240.847 134.359L190.354 175.536C189.087 176.569 188.139 177.927 187.619 179.458L171.478 226.846L141.624 208.585C137.472 206.046 132.002 207.28 129.407 211.344C126.812 215.406 128.074 220.761 132.226 223.3L154.724 237.06L111.16 249.242L85.1974 211.13C84.2265 209.705 82.8464 208.593 81.2307 207.933L29.1674 186.704L45.34 123.396H87.6715C92.5679 123.396 96.5372 119.512 96.5372 114.72C96.5372 109.928 92.5679 106.044 87.6715 106.044H42.8507L22.8992 80.0103L58.3967 66.1147L114.42 84.39C117.944 85.5395 121.826 84.4174 124.147 81.5791L159.072 38.855L206.865 62.2408V99.2057L163.185 116.305C160.763 117.252 158.891 119.195 158.067 121.617L148.216 150.537C146.668 155.083 149.178 159.997 153.823 161.512C158.468 163.027 163.489 160.57 165.037 156.024L173.588 130.921L214.397 114.946ZM141.073 33.0959L114.163 66.015L69.8429 51.5573L83.1782 18.9315L141.073 33.0959ZM190.346 226.325L227.867 214.086L240.841 156.951L203.642 187.287L190.346 226.325Z" fill="white"/>
</svg>
